<svg xmlns="http://www.w3.org/2000/svg" viewBox="0 0 128 128" role="img" aria-labelledby="t"><title id="t">Iconic achievement</title><defs><linearGradient id="g" x1="19" y1="15" x2="109" y2="113" gradientUnits="userSpaceOnUse"><stop stop-color="#22D3EE"/><stop offset=".46" stop-color="#2457F5"/><stop offset="1" stop-color="#7C5CFF"/></linearGradient><linearGradient id="m" x1="37" y1="42" x2="91" y2="91" gradientUnits="userSpaceOnUse"><stop stop-color="#fff"/><stop offset="1" stop-color="#DCE7FF"/></linearGradient></defs><path d="M64 6 79 19l20-1 7 19 16 12-8 19 4 20-18 10-10 18-20-5-19 8-12-17-20-7 2-20L9 59l15-14 5-20 20 1Z" fill="url(#g)"/><circle cx="64" cy="64" r="39" fill="url(#m)"/><path d="m42 78 7-28 15 14 15-14 7 28Z" fill="url(#g)"/><circle cx="49" cy="48" r="5" fill="#22D3EE"/><circle cx="79" cy="48" r="5" fill="#7C5CFF"/><circle cx="64" cy="37" r="6" fill="#2457F5"/><rect x="43" y="78" width="42" height="8" rx="4" fill="#2457F5"/></svg>